<svg width="48" height="48" viewBox="0 0 48 48" fill="none" xmlns="http://www.w3.org/2000/svg">
<path d="M39.7503 22.4997C41.8212 22.4997 43.5 20.8209 43.5 18.75C43.5 16.6791 41.8211 15.0003 39.7502 15.0003C37.6791 15.0003 36 16.6792 36 18.7503V22.4997H39.7503ZM29.25 22.4997C31.3211 22.4997 33 20.8207 33 18.7497V8.25031C33 6.17924 31.3211 4.50031 29.25 4.50031C27.1789 4.50031 25.5 6.17924 25.5 8.25031V18.7497C25.5 20.8207 27.1789 22.4997 29.25 22.4997Z" fill="#2EB67D"/>
<path d="M8.24968 25.5003C6.17879 25.5003 4.5 27.1791 4.5 29.25C4.5 31.3209 6.17895 32.9997 8.24984 32.9997C10.3209 32.9997 12 31.3208 12 29.2497V25.5003H8.24968ZM18.75 25.5003C16.6789 25.5003 15 27.1793 15 29.2503V39.7497C15 41.8208 16.6789 43.4997 18.75 43.4997C20.8211 43.4997 22.5 41.8208 22.5 39.7497V29.2503C22.5 27.1793 20.8211 25.5003 18.75 25.5003Z" fill="#E01E5A"/>
<path d="M25.5006 39.7503C25.5006 41.8212 27.1794 43.5 29.2503 43.5C31.3212 43.5 33 41.8211 33 39.7502C33 37.6791 31.3211 36 29.25 36L25.5006 36L25.5006 39.7503ZM25.5006 29.25C25.5006 31.3211 27.1796 33 29.2506 33L39.75 33C41.8211 33 43.5 31.3211 43.5 29.25C43.5 27.1789 41.8211 25.5 39.75 25.5L29.2506 25.5C27.1796 25.5 25.5006 27.1789 25.5006 29.25Z" fill="#ECB22E"/>
<path d="M22.4994 8.24968C22.4994 6.17879 20.8206 4.5 18.7497 4.5C16.6788 4.5 15 6.17895 15 8.24984C15 10.3209 16.6789 12 18.75 12L22.4994 12L22.4994 8.24968ZM22.4994 18.75C22.4994 16.6789 20.8204 15 18.7494 15L8.25 15C6.17893 15 4.5 16.6789 4.5 18.75C4.5 20.8211 6.17893 22.5 8.25 22.5L18.7494 22.5C20.8204 22.5 22.4994 20.8211 22.4994 18.75Z" fill="#36C5F0"/>
</svg>
