<svg width="40" height="40" viewBox="0 0 40 40" fill="none" xmlns="http://www.w3.org/2000/svg">
<path d="M0 20C0 8.95431 8.95431 0 20 0C31.0457 0 40 8.95431 40 20C40 31.0457 31.0457 40 20 40C8.95431 40 0 31.0457 0 20Z" fill="#F4EBFF"/>
<path d="M20.833 11.6667H14.9997C14.5576 11.6667 14.1337 11.8423 13.8212 12.1548C13.5086 12.4674 13.333 12.8913 13.333 13.3334V26.6667C13.333 27.1087 13.5086 27.5326 13.8212 27.8452C14.1337 28.1578 14.5576 28.3334 14.9997 28.3334H24.9997C25.4417 28.3334 25.8656 28.1578 26.1782 27.8452C26.4907 27.5326 26.6663 27.1087 26.6663 26.6667V17.5M20.833 11.6667L26.6663 17.5M20.833 11.6667V17.5H26.6663" stroke="#7F56D9" stroke-width="1.66667" stroke-linecap="round" stroke-linejoin="round"/>
</svg>
