<svg width="114" height="229" viewBox="0 0 114 229" fill="none" xmlns="http://www.w3.org/2000/svg">
<path d="M114 54.4189H112.744V19.9498C112.744 17.33 112.229 14.7358 111.228 12.3154C110.227 9.89494 108.76 7.69569 106.91 5.84317C105.061 3.99066 102.865 2.52117 100.448 1.5186C98.032 0.516022 95.442 2.21974e-06 92.8264 0H19.9174C14.635 -1.00865e-05 9.56894 2.10182 5.8337 5.84313C2.09845 9.58443 1.1189e-05 14.6587 0 19.9498V209.05C-2.77011e-06 211.67 0.515176 214.264 1.51612 216.685C2.51706 219.105 3.98416 221.304 5.83366 223.157C7.68316 225.009 9.87884 226.479 12.2953 227.481C14.7118 228.484 17.3018 229 19.9174 229H92.8263C98.1087 229 103.175 226.898 106.91 223.157C110.645 219.416 112.744 214.341 112.744 209.05V78.9547H114V54.4189Z" fill="#3F3D56"/>
<path d="M93.6298 5.19043H84.1127C84.5504 6.26519 84.7175 7.43126 84.5992 8.58592C84.481 9.74058 84.081 10.8484 83.4347 11.8118C82.7883 12.7752 81.9153 13.5645 80.8926 14.1104C79.8699 14.6562 78.7288 14.9417 77.57 14.9418H35.8014C34.6426 14.9417 33.5015 14.6562 32.4788 14.1104C31.4561 13.5645 30.5831 12.7752 29.9367 11.8118C29.2903 10.8484 28.8904 9.74059 28.7722 8.58592C28.6539 7.43126 28.821 6.26519 29.2586 5.19043H20.3697C18.4164 5.19043 16.4822 5.57578 14.6776 6.32449C12.873 7.0732 11.2333 8.1706 9.85213 9.55403C8.47095 10.9375 7.37533 12.5798 6.62783 14.3874C5.88034 16.1949 5.49561 18.1322 5.49561 20.0887V208.912C5.4956 210.868 5.88034 212.805 6.62783 214.613C7.37532 216.421 8.47093 218.063 9.85212 219.446C11.2333 220.83 12.873 221.927 14.6776 222.676C16.4822 223.425 18.4164 223.81 20.3697 223.81H93.6298C95.5831 223.81 97.5172 223.425 99.3218 222.676C101.126 221.927 102.766 220.83 104.147 219.446C105.529 218.063 106.624 216.421 107.372 214.613C108.119 212.805 108.504 210.868 108.504 208.912V20.0887C108.504 18.1322 108.119 16.1949 107.372 14.3874C106.624 12.5798 105.529 10.9375 104.147 9.55403C102.766 8.1706 101.126 7.0732 99.3218 6.32449C97.5172 5.57579 95.5831 5.19043 93.6298 5.19043Z" fill="white"/>
<path d="M57 146.074C76.6759 146.074 92.6264 130.097 92.6264 110.389C92.6264 90.6815 76.6759 74.7051 57 74.7051C37.324 74.7051 21.3735 90.6815 21.3735 110.389C21.3735 130.097 37.324 146.074 57 146.074Z" fill="#9E77ED"/>
<path d="M53.4698 124.002C52.6683 124.003 51.8881 123.744 51.2469 123.262L51.2071 123.232L42.8344 116.817C42.4466 116.519 42.1212 116.148 41.8767 115.724C41.6322 115.3 41.4735 114.832 41.4095 114.347C41.3455 113.862 41.3775 113.369 41.5038 112.896C41.6301 112.423 41.8481 111.98 42.1453 111.592C42.4426 111.203 42.8134 110.877 43.2364 110.633C43.6595 110.388 44.1265 110.229 44.611 110.165C45.0954 110.1 45.5876 110.133 46.0597 110.259C46.5317 110.385 46.9742 110.604 47.362 110.902L52.7851 115.067L65.6003 98.321C65.8975 97.9328 66.2681 97.607 66.691 97.3622C67.1139 97.1174 67.5807 96.9584 68.0649 96.8944C68.5491 96.8303 69.0412 96.8624 69.513 96.9888C69.9849 97.1152 70.4272 97.3335 70.8148 97.6312L70.8159 97.632L70.7364 97.7426L70.8181 97.632C71.6 98.234 72.1117 99.1221 72.2406 100.101C72.3696 101.081 72.1054 102.071 71.506 102.856L56.4325 122.544C56.0838 122.998 55.6354 123.365 55.1222 123.617C54.609 123.869 54.0447 123.999 53.4731 123.998L53.4698 124.002Z" fill="white"/>
</svg>
