<svg width="24" height="24" viewBox="0 0 24 24" fill="none" xmlns="http://www.w3.org/2000/svg">
<path d="M2 12C2 6.47715 6.47715 2 12 2C17.5228 2 22 6.47715 22 12C22 17.5228 17.5228 22 12 22C6.47715 22 2 17.5228 2 12Z" fill="white"/>
<path d="M12.0002 7.33333V16.6667M7.3335 12H16.6668" stroke="#98A2B3" stroke-width="1.33333" stroke-linecap="round" stroke-linejoin="round"/>
<path d="M12 22.5C12.2761 22.5 12.5 22.2761 12.5 22C12.5 21.7239 12.2761 21.5 12 21.5V22.5ZM2.5 12C2.5 11.7239 2.27614 11.5 2 11.5C1.72386 11.5 1.5 11.7239 1.5 12H2.5ZM22.5 12C22.5 11.7239 22.2761 11.5 22 11.5C21.7239 11.5 21.5 11.7239 21.5 12H22.5ZM12 21.5C11.7239 21.5 11.5 21.7239 11.5 22C11.5 22.2761 11.7239 22.5 12 22.5V21.5ZM12 1.5C11.7239 1.5 11.5 1.72386 11.5 2C11.5 2.27614 11.7239 2.5 12 2.5V1.5ZM21.5 12C21.5 12.2761 21.7239 12.5 22 12.5C22.2761 12.5 22.5 12.2761 22.5 12H21.5ZM12 2.5C12.2761 2.5 12.5 2.27614 12.5 2C12.5 1.72386 12.2761 1.5 12 1.5V2.5ZM1.5 12C1.5 12.2761 1.72386 12.5 2 12.5C2.27614 12.5 2.5 12.2761 2.5 12H1.5ZM11.5333 21.4887C11.2574 21.4754 11.023 21.6882 11.0097 21.964C10.9964 22.2398 11.2092 22.4742 11.485 22.4876L11.5333 21.4887ZM8.46159 21.8887C8.72158 21.9818 9.00778 21.8464 9.10082 21.5864C9.19386 21.3264 9.05852 21.0402 8.79852 20.9472L8.46159 21.8887ZM7.93756 20.5902C7.68801 20.4719 7.38986 20.5784 7.27163 20.8279C7.15339 21.0775 7.25984 21.3756 7.50939 21.4939L7.93756 20.5902ZM4.94852 19.78C5.15307 19.9655 5.46928 19.9501 5.65478 19.7455C5.84029 19.5409 5.82485 19.2247 5.62029 19.0392L4.94852 19.78ZM4.96077 18.3797C4.77526 18.1752 4.45906 18.1597 4.2545 18.3452C4.04995 18.5307 4.03451 18.8469 4.22002 19.0515L4.96077 18.3797ZM2.50612 16.4906C2.62436 16.7402 2.9225 16.8466 3.17205 16.7284C3.4216 16.6101 3.52805 16.312 3.40982 16.0624L2.50612 16.4906ZM3.0528 15.2015C2.95976 14.9415 2.67357 14.8061 2.41357 14.8992C2.15358 14.9922 2.01823 15.2784 2.11128 15.5384L3.0528 15.2015ZM1.51242 12.515C1.52575 12.7908 1.76016 13.0036 2.03598 12.9903C2.3118 12.977 2.52459 12.7426 2.51125 12.4667L1.51242 12.515ZM2.51125 11.5333C2.52459 11.2574 2.3118 11.023 2.03598 11.0097C1.76016 10.9964 1.52575 11.2092 1.51242 11.485L2.51125 11.5333ZM2.11128 8.46159C2.01823 8.72158 2.15358 9.00778 2.41357 9.10082C2.67357 9.19386 2.95976 9.05852 3.0528 8.79852L2.11128 8.46159ZM3.40982 7.93756C3.52805 7.68801 3.4216 7.38986 3.17205 7.27163C2.9225 7.15339 2.62436 7.25984 2.50612 7.50939L3.40982 7.93756ZM4.22002 4.94852C4.03451 5.15307 4.04995 5.46928 4.2545 5.65478C4.45906 5.84029 4.77526 5.82485 4.96077 5.62029L4.22002 4.94852ZM5.6203 4.96077C5.82485 4.77526 5.84029 4.45906 5.65478 4.2545C5.46928 4.04995 5.15307 4.03451 4.94852 4.22002L5.6203 4.96077ZM7.50939 2.50612C7.25984 2.62436 7.15339 2.9225 7.27163 3.17205C7.38986 3.4216 7.68801 3.52805 7.93756 3.40982L7.50939 2.50612ZM8.79852 3.0528C9.05852 2.95976 9.19386 2.67357 9.10082 2.41357C9.00778 2.15358 8.72158 2.01823 8.46159 2.11128L8.79852 3.0528ZM11.485 1.51242C11.2092 1.52575 10.9964 1.76016 11.0097 2.03598C11.023 2.3118 11.2574 2.52459 11.5333 2.51125L11.485 1.51242ZM12.4667 2.51125C12.7426 2.52459 12.977 2.3118 12.9903 2.03598C13.0036 1.76016 12.7908 1.52575 12.515 1.51242L12.4667 2.51125ZM15.5384 2.11128C15.2784 2.01823 14.9922 2.15358 14.8992 2.41357C14.8061 2.67357 14.9415 2.95976 15.2015 3.0528L15.5384 2.11128ZM16.0624 3.40982C16.312 3.52805 16.6101 3.4216 16.7284 3.17205C16.8466 2.9225 16.7402 2.62436 16.4906 2.50612L16.0624 3.40982ZM19.0515 4.22002C18.8469 4.03451 18.5307 4.04995 18.3452 4.2545C18.1597 4.45906 18.1752 4.77526 18.3797 4.96077L19.0515 4.22002ZM19.0392 5.6203C19.2247 5.82485 19.5409 5.84029 19.7455 5.65478C19.9501 5.46928 19.9655 5.15307 19.78 4.94852L19.0392 5.6203ZM21.4939 7.50939C21.3756 7.25984 21.0775 7.15339 20.8279 7.27163C20.5784 7.38986 20.4719 7.68801 20.5902 7.93756L21.4939 7.50939ZM20.9472 8.79852C21.0402 9.05852 21.3264 9.19386 21.5864 9.10082C21.8464 9.00778 21.9818 8.72158 21.8887 8.46159L20.9472 8.79852ZM22.4876 11.485C22.4742 11.2092 22.2398 10.9964 21.964 11.0097C21.6882 11.023 21.4754 11.2574 21.4887 11.5333L22.4876 11.485ZM21.4887 12.4667C21.4754 12.7426 21.6882 12.977 21.964 12.9903C22.2398 13.0036 22.4742 12.7908 22.4876 12.515L21.4887 12.4667ZM21.8887 15.5384C21.9818 15.2784 21.8464 14.9922 21.5864 14.8992C21.3264 14.8061 21.0402 14.9415 20.9472 15.2015L21.8887 15.5384ZM20.5902 16.0624C20.4719 16.312 20.5784 16.6101 20.8279 16.7284C21.0775 16.8466 21.3756 16.7402 21.4939 16.4906L20.5902 16.0624ZM19.78 19.0515C19.9655 18.8469 19.9501 18.5307 19.7455 18.3452C19.5409 18.1597 19.2247 18.1752 19.0392 18.3797L19.78 19.0515ZM18.3797 19.0392C18.1752 19.2247 18.1597 19.5409 18.3452 19.7455C18.5307 19.9501 18.8469 19.9655 19.0515 19.78L18.3797 19.0392ZM16.4906 21.4939C16.7402 21.3756 16.8466 21.0775 16.7284 20.8279C16.6101 20.5784 16.312 20.4719 16.0624 20.5902L16.4906 21.4939ZM15.2015 20.9472C14.9415 21.0402 14.8061 21.3264 14.8992 21.5864C14.9922 21.8464 15.2784 21.9818 15.5384 21.8887L15.2015 20.9472ZM12.515 22.4876C12.7908 22.4742 13.0036 22.2398 12.9903 21.964C12.977 21.6882 12.7426 21.4754 12.4667 21.4887L12.515 22.4876ZM12 21.5C11.8435 21.5 11.6879 21.4962 11.5333 21.4887L11.485 22.4876C11.6557 22.4958 11.8274 22.5 12 22.5V21.5ZM8.79852 20.9472C8.50459 20.842 8.21733 20.7227 7.93756 20.5902L7.50939 21.4939C7.81876 21.6405 8.13646 21.7724 8.46159 21.8887L8.79852 20.9472ZM5.62029 19.0392C5.38987 18.8303 5.16974 18.6101 4.96077 18.3797L4.22002 19.0515C4.45084 19.306 4.69399 19.5492 4.94852 19.78L5.62029 19.0392ZM3.40982 16.0624C3.27726 15.7827 3.15799 15.4954 3.0528 15.2015L2.11128 15.5384C2.22763 15.8635 2.35954 16.1812 2.50612 16.4906L3.40982 16.0624ZM2.51125 12.4667C2.50378 12.3121 2.5 12.1565 2.5 12H1.5C1.5 12.1726 1.50417 12.3443 1.51242 12.515L2.51125 12.4667ZM2.5 12C2.5 11.8435 2.50378 11.6879 2.51125 11.5333L1.51242 11.485C1.50417 11.6557 1.5 11.8274 1.5 12H2.5ZM3.0528 8.79852C3.15799 8.50459 3.27727 8.21733 3.40982 7.93756L2.50612 7.50939C2.35954 7.81876 2.22763 8.13646 2.11128 8.46159L3.0528 8.79852ZM4.96077 5.62029C5.16974 5.38987 5.38987 5.16974 5.6203 4.96077L4.94852 4.22002C4.69399 4.45084 4.45084 4.69399 4.22002 4.94852L4.96077 5.62029ZM7.93756 3.40982C8.21733 3.27726 8.50459 3.15799 8.79852 3.0528L8.46159 2.11128C8.13646 2.22763 7.81876 2.35954 7.50939 2.50612L7.93756 3.40982ZM11.5333 2.51125C11.6879 2.50378 11.8435 2.5 12 2.5V1.5C11.8274 1.5 11.6557 1.50417 11.485 1.51242L11.5333 2.51125ZM12 2.5C12.1565 2.5 12.3121 2.50378 12.4667 2.51125L12.515 1.51242C12.3443 1.50417 12.1726 1.5 12 1.5V2.5ZM15.2015 3.0528C15.4954 3.15799 15.7827 3.27727 16.0624 3.40982L16.4906 2.50612C16.1812 2.35954 15.8635 2.22763 15.5384 2.11128L15.2015 3.0528ZM18.3797 4.96077C18.6101 5.16974 18.8303 5.38987 19.0392 5.6203L19.78 4.94852C19.5492 4.69399 19.306 4.45084 19.0515 4.22002L18.3797 4.96077ZM20.5902 7.93756C20.7227 8.21733 20.842 8.50459 20.9472 8.79852L21.8887 8.46159C21.7724 8.13646 21.6405 7.81876 21.4939 7.50939L20.5902 7.93756ZM21.4887 11.5333C21.4962 11.6879 21.5 11.8435 21.5 12H22.5C22.5 11.8274 22.4958 11.6557 22.4876 11.485L21.4887 11.5333ZM21.5 12C21.5 12.1565 21.4962 12.3121 21.4887 12.4667L22.4876 12.515C22.4958 12.3443 22.5 12.1726 22.5 12H21.5ZM20.9472 15.2015C20.842 15.4954 20.7227 15.7827 20.5902 16.0624L21.4939 16.4906C21.6405 16.1812 21.7724 15.8635 21.8887 15.5384L20.9472 15.2015ZM19.0392 18.3797C18.8303 18.6101 18.6101 18.8303 18.3797 19.0392L19.0515 19.78C19.306 19.5492 19.5492 19.306 19.78 19.0515L19.0392 18.3797ZM16.0624 20.5902C15.7827 20.7227 15.4954 20.842 15.2015 20.9472L15.5384 21.8887C15.8635 21.7724 16.1812 21.6405 16.4906 21.4939L16.0624 20.5902ZM12.4667 21.4887C12.3121 21.4962 12.1565 21.5 12 21.5V22.5C12.1726 22.5 12.3443 22.4958 12.515 22.4876L12.4667 21.4887Z" fill="#D0D5DD"/>
</svg>
